<svg width="180" height="180" viewBox="0 0 180 180" fill="none" xmlns="http://www.w3.org/2000/svg">
<path d="M90 163.541C131.421 163.541 165 130.513 165 89.7705C165 49.0282 131.421 16 90 16C48.5786 16 15 49.0282 15 89.7705C15 130.513 48.5786 163.541 90 163.541Z" fill="#09090B"/>
<path d="M61.9269 54L63.5797 55.7116C61.6627 57.6112 60.3749 59.2484 59.7165 60.6232C59.061 61.8869 59.0551 63.1947 59.6988 64.5468C60.2874 65.8418 61.6009 67.5449 63.6394 69.6559L104.961 112.446C106.834 114.386 108.384 115.706 109.61 116.404C110.895 117.049 112.167 117.109 113.425 116.584C114.687 115.949 116.217 114.79 118.015 113.11L123.67 107.827C126.164 105.497 127.922 103.203 128.943 100.947C130.022 98.6363 130.48 96.255 130.318 93.8018C130.156 91.3487 129.347 88.7402 127.892 85.9759C126.436 83.2116 124.477 80.2121 122.016 76.9772L124.017 75.1076C125.606 77.096 127.833 79.5735 130.698 82.5402C131.8 83.6813 133.454 85.3373 135.661 87.5087C137.87 89.5674 140.221 91.6586 142.711 93.7812C139.643 96.431 136.253 99.49 132.54 102.958C128.773 106.369 125.439 109.43 122.539 112.139C121.205 113.386 119.494 114.985 117.405 116.935C115.317 118.887 113.083 121.028 110.702 123.361C108.323 125.583 105.915 127.888 103.476 130.275C101.04 132.551 98.718 134.775 96.5109 136.945L94.8581 135.233C96.7201 133.277 97.9788 131.667 98.6343 130.403C99.2898 129.14 99.2667 127.859 98.565 126.561C97.9213 125.208 96.6078 123.506 94.6244 121.452L53.6336 79.004C51.5951 76.893 49.9335 75.5151 48.6489 74.8704C47.3672 74.1144 46.039 74.0529 44.6643 74.686C43.2926 75.2079 41.6221 76.3345 39.6528 78.0658L38 76.3541C39.3892 75.1648 41.1554 73.6231 43.2987 71.7293C45.4999 69.7813 47.8187 67.6692 50.2549 65.3932C52.459 63.3338 54.6067 61.2732 56.6977 59.2111C58.8468 57.0946 60.5899 55.3577 61.9269 54Z" fill="white"/>
</svg>
